<svg width="1068" height="577" viewBox="0 0 1068 577" class="keymap" xmlns="http://www.w3.org/2000/svg" xmlns:xlink="http://www.w3.org/1999/xlink">
<style>/* inherit to force styles through use tags */
svg path {
    fill: inherit;
}

/* font and background color specifications */
svg.keymap {
    font-family: SFMono-Regular,Consolas,Liberation Mono,Menlo,monospace;
    font-size: 14px;
    font-kerning: normal;
    text-rendering: optimizeLegibility;
    fill: #24292e;
}

/* default key styling */
rect.key {
    fill: #f6f8fa;
}

rect.key, rect.combo {
    stroke: #c9cccf;
    stroke-width: 1;
}

/* default key side styling, only used is draw_key_sides is set */
rect.side {
    filter: brightness(90%);
}

/* color accent for combo boxes */
rect.combo, rect.combo-separate {
    fill: #cdf;
}

/* color accent for held keys */
rect.held, rect.combo.held {
    fill: #fdd;
}

/* color accent for ghost (optional) keys */
rect.ghost, rect.combo.ghost {
    stroke-dasharray: 4, 4;
    stroke-width: 2;
}

text {
    text-anchor: middle;
    dominant-baseline: middle;
}

/* styling for layer labels */
text.label {
    font-weight: bold;
    text-anchor: start;
    stroke: white;
    stroke-width: 4;
    paint-order: stroke;
}

/* styling for optional footer */
text.footer {
    text-anchor: end;
    dominant-baseline: auto;
    stroke: white;
    stroke-width: 4;
    paint-order: stroke;
}

/* styling for combo tap, and key hold/shifted label text */
text.combo, text.hold, text.shifted {
    font-size: 11px;
}

text.hold {
    text-anchor: middle;
    dominant-baseline: auto;
}

text.shifted {
    text-anchor: middle;
    dominant-baseline: hanging;
}

text.layer-activator {
    text-decoration: underline;
}

/* styling for hold/shifted label text in combo box */
text.combo.hold, text.combo.shifted {
    font-size: 8px;
}

/* lighter symbol for transparent keys */
text.trans {
    fill: #7b7e81;
}

/* styling for combo dendrons */
path.combo {
    stroke-width: 1;
    stroke: gray;
    fill: none;
}

/* Start Tabler Icons Cleanup */
/* cannot use height/width with glyphs */
.icon-tabler > path {
    fill: inherit;
    stroke: inherit;
    stroke-width: 2;
}
/* hide tabler's default box */
.icon-tabler > path[stroke="none"][fill="none"] {
    visibility: hidden;
}
/* End Tabler Icons Cleanup */

@media (prefers-color-scheme: dark) {
svg.keymap { fill: #d1d6db; }
rect.key { fill: #3f4750; }
rect.key, rect.combo { stroke: #60666c; }
rect.combo, rect.combo-separate { fill: #1f3d7a; }
rect.held, rect.combo.held { fill: #854747; }
text.label, text.footer { stroke: black; }
text.trans { fill: #7e8184; }
path.combo { stroke: #7f7f7f; }

}</style>
<g transform="translate(30, 0)" class="layer-main">
<text x="0" y="28" class="label" id="main">main:</text>
<g transform="translate(0, 56)">
<g transform="translate(28, 56)" class="key keypos-0">
<rect rx="6" ry="6" x="-26" y="-26" width="52" height="52" class="key"/>
<text x="0" y="0" class="key tap">F1</text>
</g>
<g transform="translate(84, 56)" class="key keypos-1">
<rect rx="6" ry="6" x="-26" y="-26" width="52" height="52" class="key"/>
<text x="0" y="0" class="key tap">F2</text>
</g>
<g transform="translate(140, 28)" class="key keypos-2">
<rect rx="6" ry="6" x="-26" y="-26" width="52" height="52" class="key"/>
<text x="0" y="0" class="key tap">F3</text>
</g>
<g transform="translate(196, 28)" class="key keypos-3">
<rect rx="6" ry="6" x="-26" y="-26" width="52" height="52" class="key"/>
<text x="0" y="0" class="key tap">F4</text>
</g>
<g transform="translate(252, 28)" class="key keypos-4">
<rect rx="6" ry="6" x="-26" y="-26" width="52" height="52" class="key"/>
<text x="0" y="0" class="key tap">F5</text>
</g>
<g transform="translate(756, 28)" class="key keypos-5">
<rect rx="6" ry="6" x="-26" y="-26" width="52" height="52" class="key"/>
<text x="0" y="0" class="key tap">F6</text>
</g>
<g transform="translate(812, 28)" class="key keypos-6">
<rect rx="6" ry="6" x="-26" y="-26" width="52" height="52" class="key"/>
<text x="0" y="0" class="key tap">F7</text>
</g>
<g transform="translate(868, 28)" class="key keypos-7">
<rect rx="6" ry="6" x="-26" y="-26" width="52" height="52" class="key"/>
<text x="0" y="0" class="key tap">F8</text>
</g>
<g transform="translate(924, 56)" class="key keypos-8">
<rect rx="6" ry="6" x="-26" y="-26" width="52" height="52" class="key"/>
<text x="0" y="0" class="key tap">F9</text>
</g>
<g transform="translate(980, 56)" class="key keypos-9">
<rect rx="6" ry="6" x="-26" y="-26" width="52" height="52" class="key"/>
<text x="0" y="0" class="key tap">F10</text>
</g>
<g transform="translate(28, 112)" class="key keypos-10">
<rect rx="6" ry="6" x="-26" y="-26" width="52" height="52" class="key"/>
<text x="0" y="0" class="key tap">
<tspan x="0" dy="-0.6em">VOLUME</tspan><tspan x="0" dy="1.2em">DOWN</tspan>
</text>
</g>
<g transform="translate(84, 112)" class="key keypos-11">
<rect rx="6" ry="6" x="-26" y="-26" width="52" height="52" class="key"/>
<text x="0" y="0" class="key tap">
<tspan x="0" dy="-0.6em">VOLUME</tspan><tspan x="0" dy="1.2em">UP</tspan>
</text>
</g>
<g transform="translate(140, 84)" class="key keypos-12">
<rect rx="6" ry="6" x="-26" y="-26" width="52" height="52" class="key"/>
<text x="0" y="0" class="key tap">\</text>
<text x="0" y="24" class="key hold"><tspan style="font-size: 64%">&amp;backslash…</tspan></text>
<text x="0" y="-24" class="key shifted">\</text>
</g>
<g transform="translate(196, 84)" class="key keypos-13">
<rect rx="6" ry="6" x="-26" y="-26" width="52" height="52" class="key"/>
<text x="0" y="0" class="key tap">K</text>
<text x="0" y="-24" class="key shifted">Sft+ F1</text>
</g>
<g transform="translate(252, 84)" class="key keypos-14">
<rect rx="6" ry="6" x="-26" y="-26" width="52" height="52" class="key"/>
<text x="0" y="0" class="key tap">/</text>
<text x="0" y="24" class="key hold"><tspan style="font-size: 64%">&amp;slash_sla…</tspan></text>
<text x="0" y="-24" class="key shifted">/</text>
</g>
<g transform="translate(308, 84)" class="key keypos-15">
<rect rx="6" ry="6" x="-26" y="-26" width="52" height="52" class="key"/>
<text x="0" y="0" class="key tap">
<tspan x="0" dy="-0.0em">Gui+</tspan><tspan x="0" dy="1.2em">F10</tspan>
</text>
<text x="0" y="-24" class="key shifted"><tspan style="font-size: 88%">Gui+ F10</tspan></text>
</g>
<g transform="translate(700, 84)" class="key keypos-16">
<rect rx="6" ry="6" x="-26" y="-26" width="52" height="52" class="key"/>
<text x="0" y="0" class="key tap"><tspan style="font-size: 70%">&amp;exc_equal</tspan></text>
<text x="0" y="-24" class="key shifted"><tspan style="font-size: 70%">&amp;exc_equal</tspan></text>
</g>
<g transform="translate(756, 84)" class="key keypos-17">
<rect rx="6" ry="6" x="-26" y="-26" width="52" height="52" class="key"/>
<text x="0" y="0" class="key tap">&lt;</text>
<text x="0" y="-24" class="key shifted">&lt;</text>
</g>
<g transform="translate(812, 84)" class="key keypos-18">
<rect rx="6" ry="6" x="-26" y="-26" width="52" height="52" class="key"/>
<text x="0" y="0" class="key tap">=</text>
<text x="0" y="-24" class="key shifted">=</text>
</g>
<g transform="translate(868, 84)" class="key keypos-19">
<rect rx="6" ry="6" x="-26" y="-26" width="52" height="52" class="key"/>
<text x="0" y="0" class="key tap">&gt;</text>
<text x="0" y="-24" class="key shifted">&gt;</text>
</g>
<g transform="translate(924, 112)" class="key keypos-20">
<rect rx="6" ry="6" x="-26" y="-26" width="52" height="52" class="key"/>
</g>
<g transform="translate(980, 112)" class="key keypos-21">
<rect rx="6" ry="6" x="-26" y="-26" width="52" height="52" class="key"/>
</g>
<g transform="translate(28, 168)" class="key keypos-22">
<rect rx="6" ry="6" x="-26" y="-26" width="52" height="52" class="key"/>
<text x="0" y="0" class="key tap">MUTE</text>
</g>
<g transform="translate(84, 168)" class="key keypos-23">
<rect rx="6" ry="6" x="-26" y="-26" width="52" height="52" class="key"/>
<text x="0" y="0" class="key tap">#</text>
<text x="0" y="-24" class="key shifted">#</text>
</g>
<g transform="translate(140, 140)" class="key keypos-24">
<rect rx="6" ry="6" x="-26" y="-26" width="52" height="52" class="key"/>
<text x="0" y="0" class="key tap">G</text>
<text x="0" y="24" class="key hold">navr</text>
<text x="0" y="-24" class="key shifted">Sft+ F2</text>
</g>
<g transform="translate(196, 140)" class="key keypos-25">
<rect rx="6" ry="6" x="-26" y="-26" width="52" height="52" class="key"/>
<text x="0" y="0" class="key tap">H</text>
<text x="0" y="24" class="key hold"><tspan style="font-size: 64%">&amp;moswitche…</tspan></text>
<text x="0" y="-24" class="key shifted">Sft+ F3</text>
</g>
<g transform="translate(252, 140)" class="key keypos-26">
<rect rx="6" ry="6" x="-26" y="-26" width="52" height="52" class="key"/>
<text x="0" y="0" class="key tap">C</text>
<text x="0" y="-24" class="key shifted">Ctl+ F4</text>
</g>
<g transform="translate(308, 140)" class="key keypos-27">
<rect rx="6" ry="6" x="-26" y="-26" width="52" height="52" class="key"/>
<text x="0" y="0" class="key tap">W</text>
<text x="0" y="-24" class="key shifted">Sft+ F5</text>
</g>
<g transform="translate(700, 140)" class="key keypos-28">
<rect rx="6" ry="6" x="-26" y="-26" width="52" height="52" class="key"/>
<text x="0" y="0" class="key tap">ESCAPE</text>
<text x="0" y="-24" class="key shifted">Ctl+ A</text>
</g>
<g transform="translate(756, 140)" class="key keypos-29">
<rect rx="6" ry="6" x="-26" y="-26" width="52" height="52" class="key"/>
<text x="0" y="0" class="key tap">V</text>
<text x="0" y="-24" class="key shifted"><tspan style="font-size: 88%">Ctl+ F14</tspan></text>
</g>
<g transform="translate(812, 140)" class="key keypos-30">
<rect rx="6" ry="6" x="-26" y="-26" width="52" height="52" class="key"/>
<text x="0" y="0" class="key tap">L</text>
<text x="0" y="24" class="key hold"><tspan style="font-size: 64%">&amp;moswitche…</tspan></text>
<text x="0" y="-24" class="key shifted"><tspan style="font-size: 88%">Sft+ F15</tspan></text>
</g>
<g transform="translate(868, 140)" class="key keypos-31">
<rect rx="6" ry="6" x="-26" y="-26" width="52" height="52" class="key"/>
<text x="0" y="0" class="key tap">B</text>
<text x="0" y="24" class="key hold">navl</text>
<text x="0" y="-24" class="key shifted"><tspan style="font-size: 88%">Sft+ F16</tspan></text>
</g>
<g transform="translate(924, 168)" class="key keypos-32">
<rect rx="6" ry="6" x="-26" y="-26" width="52" height="52" class="key"/>
<text x="0" y="0" class="key tap">~</text>
<text x="0" y="-24" class="key shifted">~</text>
</g>
<g transform="translate(980, 168)" class="key keypos-33">
<rect rx="6" ry="6" x="-26" y="-26" width="52" height="52" class="key"/>
</g>
<g transform="translate(28, 224)" class="key keypos-34">
<rect rx="6" ry="6" x="-26" y="-26" width="52" height="52" class="key"/>
<text x="0" y="0" class="key tap">@</text>
<text x="0" y="24" class="key hold">RGUI</text>
<text x="0" y="-24" class="key shifted">@</text>
</g>
<g transform="translate(84, 224)" class="key keypos-35">
<rect rx="6" ry="6" x="-26" y="-26" width="52" height="52" class="key"/>
<text x="0" y="0" class="key tap">O</text>
<text x="0" y="-24" class="key shifted">Sft+ F6</text>
</g>
<g transform="translate(140, 196)" class="key keypos-36">
<rect rx="6" ry="6" x="-26" y="-26" width="52" height="52" class="key"/>
<text x="0" y="0" class="key tap">A</text>
<text x="0" y="24" class="key hold">LALT</text>
<text x="0" y="-24" class="key shifted">Ctl+ F7</text>
</g>
<g transform="translate(196, 196)" class="key keypos-37">
<rect rx="6" ry="6" x="-26" y="-26" width="52" height="52" class="key"/>
<text x="0" y="0" class="key tap">I</text>
<text x="0" y="24" class="key hold">LSHIFT</text>
<text x="0" y="-24" class="key shifted">Sft+ F8</text>
</g>
<g transform="translate(252, 196)" class="key keypos-38">
<rect rx="6" ry="6" x="-26" y="-26" width="52" height="52" class="key"/>
<text x="0" y="0" class="key tap">N</text>
<text x="0" y="24" class="key hold">LCTRL</text>
<text x="0" y="-24" class="key shifted">Sft+ F9</text>
</g>
<g transform="translate(308, 196)" class="key keypos-39">
<rect rx="6" ry="6" x="-26" y="-26" width="52" height="52" class="key"/>
<text x="0" y="0" class="key tap">TAB</text>
<text x="0" y="-24" class="key shifted">TAB</text>
</g>
<g transform="translate(700, 196)" class="key keypos-40">
<rect rx="6" ry="6" x="-26" y="-26" width="52" height="52" class="key"/>
<text x="0" y="0" class="key tap">ENTER</text>
<text x="0" y="-24" class="key shifted">ENTER</text>
</g>
<g transform="translate(756, 196)" class="key keypos-41">
<rect rx="6" ry="6" x="-26" y="-26" width="52" height="52" class="key"/>
<text x="0" y="0" class="key tap">T</text>
<text x="0" y="24" class="key hold">RCTRL</text>
<text x="0" y="-24" class="key shifted"><tspan style="font-size: 88%">Sft+ F17</tspan></text>
</g>
<g transform="translate(812, 196)" class="key keypos-42">
<rect rx="6" ry="6" x="-26" y="-26" width="52" height="52" class="key"/>
<text x="0" y="0" class="key tap">R</text>
<text x="0" y="24" class="key hold">RSHIFT</text>
<text x="0" y="-24" class="key shifted"><tspan style="font-size: 88%">Sft+ F18</tspan></text>
</g>
<g transform="translate(868, 196)" class="key keypos-43">
<rect rx="6" ry="6" x="-26" y="-26" width="52" height="52" class="key"/>
<text x="0" y="0" class="key tap">E</text>
<text x="0" y="24" class="key hold">RALT</text>
<text x="0" y="-24" class="key shifted"><tspan style="font-size: 88%">Sft+ F19</tspan></text>
</g>
<g transform="translate(924, 224)" class="key keypos-44">
<rect rx="6" ry="6" x="-26" y="-26" width="52" height="52" class="key"/>
<text x="0" y="0" class="key tap">S</text>
<text x="0" y="-24" class="key shifted"><tspan style="font-size: 88%">Ctl+ F20</tspan></text>
</g>
<g transform="translate(980, 224)" class="key keypos-45">
<rect rx="6" ry="6" x="-26" y="-26" width="52" height="52" class="key"/>
<text x="0" y="0" class="key tap">`</text>
<text x="0" y="24" class="key hold">RGUI</text>
<text x="0" y="-24" class="key shifted">`</text>
</g>
<g transform="translate(28, 280)" class="key keypos-46">
<rect rx="6" ry="6" x="-26" y="-26" width="52" height="52" class="key"/>
</g>
<g transform="translate(84, 280)" class="key keypos-47">
<rect rx="6" ry="6" x="-26" y="-26" width="52" height="52" class="key"/>
<text x="0" y="0" class="key tap">J</text>
<text x="0" y="-24" class="key shifted"><tspan style="font-size: 88%">Sft+ F10</tspan></text>
</g>
<g transform="translate(140, 252)" class="key keypos-48">
<rect rx="6" ry="6" x="-26" y="-26" width="52" height="52" class="key"/>
<text x="0" y="0" class="key tap">F</text>
<text x="0" y="24" class="key hold">navl</text>
<text x="0" y="-24" class="key shifted"><tspan style="font-size: 88%">Sft+ F11</tspan></text>
</g>
<g transform="translate(196, 252)" class="key keypos-49">
<rect rx="6" ry="6" x="-26" y="-26" width="52" height="52" class="key"/>
<text x="0" y="0" class="key tap">U</text>
<text x="0" y="24" class="key hold"><tspan style="font-size: 64%">Sft+Alt+ L…</tspan></text>
<text x="0" y="-24" class="key shifted"><tspan style="font-size: 88%">Sft+ F12</tspan></text>
</g>
<g transform="translate(252, 252)" class="key keypos-50">
<rect rx="6" ry="6" x="-26" y="-26" width="52" height="52" class="key"/>
<text x="0" y="0" class="key tap">P</text>
<text x="0" y="24" class="key hold">numr</text>
<text x="0" y="-24" class="key shifted"><tspan style="font-size: 88%">Sft+ F13</tspan></text>
</g>
<g transform="translate(308, 252)" class="key keypos-51">
<rect rx="6" ry="6" x="-26" y="-26" width="52" height="52" class="key"/>
<text x="0" y="0" class="key tap">&#x27;</text>
<text x="0" y="-24" class="key shifted">&#x27;</text>
</g>
<g transform="translate(371, 312) rotate(30.0)" class="key keypos-52">
<rect rx="6" ry="6" x="-26" y="-26" width="52" height="52" class="key"/>
<text x="0" y="0" class="key tap"><tspan style="font-size: 78%">BACKSPACE</tspan></text>
<text x="0" y="-24" class="key shifted"><tspan style="font-size: 78%">BACKSPACE</tspan></text>
</g>
<g transform="translate(420, 350) rotate(45.0)" class="key keypos-53">
<rect rx="6" ry="6" x="-26" y="-26" width="52" height="52" class="key"/>
<text x="0" y="0" class="key tap">numl</text>
</g>
<g transform="translate(458, 399) rotate(60.0)" class="key keypos-54">
<rect rx="6" ry="6" x="-26" y="-26" width="52" height="52" class="key"/>
<text x="0" y="0" class="key tap"><tspan style="font-size: 64%">&amp;rgb_ug_st…</tspan></text>
<text x="0" y="24" class="key hold">magic</text>
</g>
<g transform="translate(550, 399) rotate(-60.0)" class="key keypos-55">
<rect rx="6" ry="6" x="-26" y="-26" width="52" height="52" class="key"/>
<text x="0" y="0" class="key tap"><tspan style="font-size: 64%">&amp;rgb_ug_st…</tspan></text>
<text x="0" y="24" class="key hold">magic</text>
</g>
<g transform="translate(588, 350) rotate(-45.0)" class="key keypos-56">
<rect rx="6" ry="6" x="-26" y="-26" width="52" height="52" class="key"/>
<text x="0" y="0" class="key tap">numl</text>
<text x="0" y="24" class="key hold">toggle</text>
</g>
<g transform="translate(637, 312) rotate(-30.0)" class="key keypos-57">
<rect rx="6" ry="6" x="-26" y="-26" width="52" height="52" class="key"/>
<text x="0" y="0" class="key tap">F9</text>
<text x="0" y="-24" class="key shifted">F9</text>
</g>
<g transform="translate(700, 252)" class="key keypos-58">
<rect rx="6" ry="6" x="-26" y="-26" width="52" height="52" class="key"/>
<text x="0" y="0" class="key tap">&quot;</text>
<text x="0" y="-24" class="key shifted">&quot;</text>
</g>
<g transform="translate(756, 252)" class="key keypos-59">
<rect rx="6" ry="6" x="-26" y="-26" width="52" height="52" class="key"/>
<text x="0" y="0" class="key tap">M</text>
<text x="0" y="24" class="key hold">numl</text>
<text x="0" y="-24" class="key shifted"><tspan style="font-size: 88%">Sft+ F21</tspan></text>
</g>
<g transform="translate(812, 252)" class="key keypos-60">
<rect rx="6" ry="6" x="-26" y="-26" width="52" height="52" class="key"/>
<text x="0" y="0" class="key tap">D</text>
<text x="0" y="24" class="key hold"><tspan style="font-size: 64%">Sft+AGr+ R…</tspan></text>
<text x="0" y="-24" class="key shifted"><tspan style="font-size: 88%">Sft+ F22</tspan></text>
</g>
<g transform="translate(868, 252)" class="key keypos-61">
<rect rx="6" ry="6" x="-26" y="-26" width="52" height="52" class="key"/>
<text x="0" y="0" class="key tap">Y</text>
<text x="0" y="24" class="key hold">navr</text>
<text x="0" y="-24" class="key shifted"><tspan style="font-size: 88%">Ctl+ F23</tspan></text>
</g>
<g transform="translate(924, 280)" class="key keypos-62">
<rect rx="6" ry="6" x="-26" y="-26" width="52" height="52" class="key"/>
<text x="0" y="0" class="key tap">X</text>
<text x="0" y="-24" class="key shifted"><tspan style="font-size: 88%">Ctl+ F24</tspan></text>
</g>
<g transform="translate(980, 280)" class="key keypos-63">
<rect rx="6" ry="6" x="-26" y="-26" width="52" height="52" class="key"/>
</g>
<g transform="translate(28, 336)" class="key keypos-64">
<rect rx="6" ry="6" x="-26" y="-26" width="52" height="52" class="key"/>
<text x="0" y="0" class="key tap"><tspan style="font-size: 64%">&amp;reloadkey…</tspan></text>
</g>
<g transform="translate(84, 336)" class="key keypos-65">
<rect rx="6" ry="6" x="-26" y="-26" width="52" height="52" class="key"/>
<text x="0" y="0" class="key tap">^</text>
<text x="0" y="-24" class="key shifted">^</text>
</g>
<g transform="translate(140, 308)" class="key keypos-66">
<rect rx="6" ry="6" x="-26" y="-26" width="52" height="52" class="key"/>
<text x="0" y="0" class="key tap">Q</text>
<text x="0" y="-24" class="key shifted">Ctl+ ^</text>
</g>
<g transform="translate(196, 308)" class="key keypos-67">
<rect rx="6" ry="6" x="-26" y="-26" width="52" height="52" class="key"/>
<text x="0" y="0" class="key tap">[</text>
<text x="0" y="24" class="key hold"><tspan style="font-size: 64%">&amp;lef_bra_r…</tspan></text>
<text x="0" y="-24" class="key shifted">[</text>
</g>
<g transform="translate(252, 308)" class="key keypos-68">
<rect rx="6" ry="6" x="-26" y="-26" width="52" height="52" class="key"/>
<text x="0" y="0" class="key tap">(</text>
<text x="0" y="24" class="key hold"><tspan style="font-size: 64%">&amp;lef_par_r…</tspan></text>
<text x="0" y="-24" class="key shifted">(</text>
</g>
<g transform="translate(314, 347) rotate(20.0)" class="key keypos-69">
<rect rx="6" ry="6" x="-26" y="-26" width="52" height="52" class="key"/>
<text x="0" y="0" class="key tap">SPACE</text>
<text x="0" y="-24" class="key shifted">SPACE</text>
</g>
<g transform="translate(369, 379) rotate(40.0)" class="key keypos-70">
<rect rx="6" ry="6" x="-26" y="-26" width="52" height="52" class="key"/>
<text x="0" y="0" class="key tap">de</text>
<text x="0" y="24" class="key hold"><tspan style="font-size: 88%">Gui+ F12</tspan></text>
<text x="0" y="-24" class="key shifted">de</text>
</g>
<g transform="translate(410, 427) rotate(60.0)" class="key keypos-71">
<rect rx="6" ry="6" x="-26" y="-26" width="52" height="52" class="key"/>
<text x="0" y="0" class="key tap"><tspan style="font-size: 88%">switcher</tspan></text>
<text x="0" y="24" class="key hold">toggle</text>
</g>
<g transform="translate(598, 427) rotate(-60.0)" class="key keypos-72">
<rect rx="6" ry="6" x="-26" y="-26" width="52" height="52" class="key"/>
<text x="0" y="0" class="key tap"><tspan style="font-size: 70%">main_upper</tspan></text>
<text x="0" y="24" class="key hold">toggle</text>
</g>
<g transform="translate(639, 379) rotate(-40.0)" class="key keypos-73">
<rect rx="6" ry="6" x="-26" y="-26" width="52" height="52" class="key"/>
<text x="0" y="0" class="key tap">DELETE</text>
<text x="0" y="-24" class="key shifted">DELETE</text>
</g>
<g transform="translate(694, 347) rotate(-20.0)" class="key keypos-74">
<rect rx="6" ry="6" x="-26" y="-26" width="52" height="52" class="key"/>
<text x="0" y="0" class="key tap"><tspan style="font-size: 70%">main_upper</tspan></text>
<text x="0" y="24" class="key hold">sticky</text>
<text x="0" y="-24" class="key shifted"><tspan style="font-size: 70%">main_upper</tspan></text>
</g>
<g transform="translate(756, 308)" class="key keypos-75">
<rect rx="6" ry="6" x="-26" y="-26" width="52" height="52" class="key"/>
<text x="0" y="0" class="key tap">{</text>
<text x="0" y="24" class="key hold"><tspan style="font-size: 64%">&amp;left_brac…</tspan></text>
<text x="0" y="-24" class="key shifted">{</text>
</g>
<g transform="translate(812, 308)" class="key keypos-76">
<rect rx="6" ry="6" x="-26" y="-26" width="52" height="52" class="key"/>
<text x="0" y="0" class="key tap">_</text>
<text x="0" y="-24" class="key shifted">_</text>
</g>
<g transform="translate(868, 308)" class="key keypos-77">
<rect rx="6" ry="6" x="-26" y="-26" width="52" height="52" class="key"/>
<text x="0" y="0" class="key tap">Z</text>
<text x="0" y="-24" class="key shifted">Ctl+ ~</text>
</g>
<g transform="translate(924, 336)" class="key keypos-78">
<rect rx="6" ry="6" x="-26" y="-26" width="52" height="52" class="key"/>
<text x="0" y="0" class="key tap">$</text>
<text x="0" y="-24" class="key shifted">$</text>
</g>
<g transform="translate(980, 336)" class="key keypos-79">
<rect rx="6" ry="6" x="-26" y="-26" width="52" height="52" class="key"/>
</g>
<g class="combo combopos-0">
<rect rx="6" ry="6" x="159" y="132" width="18" height="16" class="combo"/>
<text x="168" y="140" class="combo tap">+</text>
</g>
<g class="combo combopos-1">
<rect rx="6" ry="6" x="215" y="132" width="18" height="16" class="combo"/>
<text x="224" y="140" class="combo tap">-</text>
</g>
<g class="combo combopos-2">
<path d="M196,140 l-37,0" class="combo"/>
<path d="M196,140 l37,0" class="combo"/>
<rect rx="6" ry="6" x="187" y="132" width="18" height="16" class="combo"/>
<text x="196" y="140" class="combo tap">*</text>
</g>
<g class="combo combopos-3">
<rect rx="6" ry="6" x="159" y="188" width="18" height="16" class="combo"/>
<text x="168" y="196" class="combo tap">:</text>
</g>
<g class="combo combopos-4">
<rect rx="6" ry="6" x="215" y="188" width="18" height="16" class="combo"/>
<text x="224" y="196" class="combo tap">.</text>
</g>
<g class="combo combopos-5">
<path d="M196,196 l-37,0" class="combo"/>
<path d="M196,196 l37,0" class="combo"/>
<rect rx="6" ry="6" x="187" y="188" width="18" height="16" class="combo"/>
<text x="196" y="196" class="combo tap">!</text>
</g>
<g class="combo combopos-6">
<rect rx="6" ry="6" x="215" y="244" width="18" height="16" class="combo"/>
<text x="224" y="252" class="combo tap">%</text>
</g>
<g class="combo combopos-7">
<rect rx="6" ry="6" x="775" y="132" width="18" height="16" class="combo"/>
<text x="784" y="140" class="combo tap">|</text>
</g>
<g class="combo combopos-8">
<rect rx="6" ry="6" x="831" y="132" width="18" height="16" class="combo"/>
<text x="840" y="140" class="combo tap">&amp;</text>
</g>
<g class="combo combopos-9">
<path d="M812,140 l-37,0" class="combo"/>
<path d="M812,140 l37,0" class="combo"/>
<rect rx="6" ry="6" x="803" y="132" width="18" height="16" class="combo"/>
<text x="812" y="140" class="combo tap"><tspan style="font-size: 64%">&amp;equal_equ…</tspan></text>
</g>
<g class="combo combopos-10">
<rect rx="6" ry="6" x="775" y="188" width="18" height="16" class="combo"/>
<text x="784" y="196" class="combo tap">,</text>
</g>
<g class="combo combopos-11">
<rect rx="6" ry="6" x="831" y="188" width="18" height="16" class="combo"/>
<text x="840" y="196" class="combo tap">;</text>
</g>
<g class="combo combopos-12">
<path d="M812,196 l-37,0" class="combo"/>
<path d="M812,196 l37,0" class="combo"/>
<rect rx="6" ry="6" x="803" y="188" width="18" height="16" class="combo"/>
<text x="812" y="196" class="combo tap">?</text>
</g>
<g class="combo combopos-13">
<rect rx="6" ry="6" x="775" y="244" width="18" height="16" class="combo"/>
<text x="784" y="252" class="combo tap"><tspan style="font-size: 64%">&amp;minus_gre…</tspan></text>
</g>
</g>
</g>
<text x="1038.0" y="549.0" class="footer">Created with <a href="https://github.com/caksoylar/keymap-drawer">keymap-drawer</a></text></svg>
